<svg xmlns="http://www.w3.org/2000/svg" viewBox="0 0 1200 440">
  <!-- Drawn from the hero pad geometry. Filled with var() tokens so the
       page CSS still colours it through <use>; presentation attributes
       only, because class selectors do not reach a use shadow tree. -->
  <g id="s" vector-effect="non-scaling-stroke"><path d="M600,60 C658,60 706,66 740,82 C774,98 794,124 806,158 C822,202 842,258 850,308 C858,356 852,398 822,416 C796,430 770,424 754,398 C738,372 730,340 710,318 C690,296 652,288 600,288 C548,288 510,296 490,318 C470,340 462,372 446,398 C430,424 404,430 378,416 C348,398 342,356 350,308 C358,258 378,202 394,158 C406,124 426,98 460,82 C494,66 542,60 600,60 Z" fill="var(--pad-body)" stroke="var(--pad-edge)" stroke-width="1.4" stroke-linejoin="round"/><circle cx="556" cy="102" r="9" fill="var(--pad-ink)" opacity=".5"/><circle cx="644" cy="102" r="9" fill="var(--pad-ink)" opacity=".5"/><path d="M528,216v48M504,240h48" stroke="var(--pad-ink)" stroke-width="15" stroke-linecap="round" opacity=".5" fill="none"/><circle cx="474" cy="148" r="34" fill="var(--pad-ink)" opacity=".28"/><circle cx="474" cy="148" r="19" fill="var(--pad-ink)" opacity=".62"/><circle cx="668" cy="240" r="34" fill="var(--pad-ink)" opacity=".28"/><circle cx="668" cy="240" r="19" fill="var(--pad-ink)" opacity=".62"/><circle cx="726" cy="110" r="15" fill="var(--ps-triangle)"/><circle cx="688" cy="148" r="15" fill="var(--ps-cross)"/><circle cx="764" cy="148" r="15" fill="var(--ps-circle)"/><circle cx="726" cy="186" r="15" fill="var(--ps-square)"/></g>
</svg>
